<svg width="105" height="28" viewBox="0 0 105 28" fill="none" xmlns="http://www.w3.org/2000/svg">
<path d="M24.7695 27H19.9883V15.0469C19.9883 14.7188 19.9238 14.4082 19.7949 14.1152C19.6777 13.8223 19.5078 13.5645 19.2852 13.3418C19.0625 13.1191 18.8047 12.9492 18.5117 12.832C18.2188 12.7031 17.9082 12.6387 17.5801 12.6387C17.252 12.6387 16.9414 12.7031 16.6484 12.832C16.3672 12.9492 16.1152 13.1191 15.8926 13.3418C15.6816 13.5645 15.5117 13.8223 15.3828 14.1152C15.2656 14.4082 15.207 14.7188 15.207 15.0469V27H10.4082V15.0469C10.4082 14.7188 10.3438 14.4082 10.2148 14.1152C10.0977 13.8223 9.92773 13.5645 9.70508 13.3418C9.48242 13.1191 9.22461 12.9492 8.93164 12.832C8.63867 12.7031 8.32812 12.6387 8 12.6387C7.67188 12.6387 7.36133 12.7031 7.06836 12.832C6.78711 12.9492 6.53516 13.1191 6.3125 13.3418C6.10156 13.5645 5.93164 13.8223 5.80273 14.1152C5.68555 14.4082 5.62695 14.7188 5.62695 15.0469V27H0.828125V8.17383H1.98828L3.28906 9.61523C3.95703 9.05273 4.68945 8.61914 5.48633 8.31445C6.29492 7.99805 7.13281 7.83984 8 7.83984C8.87891 7.83984 9.73438 8.00391 10.5664 8.33203C11.4102 8.66016 12.1484 9.22852 12.7812 10.0371C13.0742 9.63867 13.4082 9.29883 13.7832 9.01758C14.1582 8.73633 14.5508 8.50781 14.9609 8.33203C15.3828 8.15625 15.8164 8.0332 16.2617 7.96289C16.707 7.88086 17.1465 7.83984 17.5801 7.83984C18.5762 7.83984 19.5078 8.02734 20.375 8.40234C21.2539 8.77734 22.0156 9.29297 22.6602 9.94922C23.3164 10.5938 23.832 11.3555 24.207 12.2344C24.582 13.1133 24.7695 14.0508 24.7695 15.0469V27ZM35.7734 22.3945C35.9609 22.4531 36.1484 22.4941 36.3359 22.5176C36.5234 22.5293 36.7109 22.5352 36.8984 22.5352C37.3672 22.5352 37.8184 22.4707 38.252 22.3418C38.6855 22.2129 39.0898 22.0312 39.4648 21.7969C39.8516 21.5508 40.1914 21.2578 40.4844 20.918C40.7891 20.5664 41.0352 20.1797 41.2227 19.7578L44.7383 23.291C44.293 23.9238 43.7773 24.4922 43.1914 24.9961C42.6172 25.5 41.9902 25.9277 41.3105 26.2793C40.6426 26.6309 39.9336 26.8945 39.1836 27.0703C38.4453 27.2578 37.6836 27.3516 36.8984 27.3516C35.5742 27.3516 34.3262 27.1055 33.1543 26.6133C31.9941 26.1211 30.9746 25.4355 30.0957 24.5566C29.2285 23.6777 28.543 22.6348 28.0391 21.4277C27.5352 20.209 27.2832 18.873 27.2832 17.4199C27.2832 15.9316 27.5352 14.5723 28.0391 13.3418C28.543 12.1113 29.2285 11.0625 30.0957 10.1953C30.9746 9.32812 31.9941 8.6543 33.1543 8.17383C34.3262 7.69336 35.5742 7.45312 36.8984 7.45312C37.6836 7.45312 38.4512 7.54688 39.2012 7.73438C39.9512 7.92188 40.6602 8.19141 41.3281 8.54297C42.0078 8.89453 42.6406 9.32812 43.2266 9.84375C43.8125 10.3477 44.3281 10.916 44.7734 11.5488L35.7734 22.3945ZM38.2344 12.498C38.0117 12.416 37.7891 12.3633 37.5664 12.3398C37.3555 12.3164 37.1328 12.3047 36.8984 12.3047C36.2422 12.3047 35.6211 12.4277 35.0352 12.6738C34.4609 12.9082 33.957 13.248 33.5234 13.6934C33.1016 14.1387 32.7676 14.6777 32.5215 15.3105C32.2754 15.9316 32.1523 16.6348 32.1523 17.4199C32.1523 17.5957 32.1582 17.7949 32.1699 18.0176C32.1934 18.2402 32.2227 18.4688 32.2578 18.7031C32.3047 18.9258 32.3574 19.1426 32.416 19.3535C32.4746 19.5645 32.5508 19.752 32.6445 19.916L38.2344 12.498ZM52.0332 27H47.1992V0.685547H52.0332V17.2793L59.1875 8.20898H64.707L58.4668 16.0488L64.707 27H59.1875L55.373 20.1621L52.0332 24.5918V27ZM84.2363 27H83.0762L81.2129 24.416C80.7559 24.8262 80.2695 25.2129 79.7539 25.5762C79.25 25.9277 78.7168 26.2383 78.1543 26.5078C77.5918 26.7656 77.0117 26.9707 76.4141 27.123C75.8281 27.2754 75.2305 27.3516 74.6211 27.3516C73.2969 27.3516 72.0488 27.1289 70.877 26.6836C69.7168 26.2383 68.6973 25.5938 67.8184 24.75C66.9512 23.8945 66.2656 22.8516 65.7617 21.6211C65.2578 20.3906 65.0059 18.9902 65.0059 17.4199C65.0059 15.9551 65.2578 14.6133 65.7617 13.3945C66.2656 12.1641 66.9512 11.1094 67.8184 10.2305C68.6973 9.35156 69.7168 8.67188 70.877 8.19141C72.0488 7.69922 73.2969 7.45312 74.6211 7.45312C75.2305 7.45312 75.834 7.5293 76.4316 7.68164C77.0293 7.83398 77.6094 8.04492 78.1719 8.31445C78.7344 8.58398 79.2676 8.90039 79.7715 9.26367C80.2871 9.62695 80.7676 10.0195 81.2129 10.4414L83.0762 8.20898H84.2363V27ZM79.4023 17.4199C79.4023 16.7637 79.2734 16.1309 79.0156 15.5215C78.7695 14.9004 78.4297 14.3555 77.9961 13.8867C77.5625 13.4062 77.0527 13.0254 76.4668 12.7441C75.8926 12.4512 75.2773 12.3047 74.6211 12.3047C73.9648 12.3047 73.3438 12.416 72.7578 12.6387C72.1836 12.8613 71.6797 13.1895 71.2461 13.623C70.8242 14.0566 70.4902 14.5957 70.2441 15.2402C69.998 15.873 69.875 16.5996 69.875 17.4199C69.875 18.2402 69.998 18.9727 70.2441 19.6172C70.4902 20.25 70.8242 20.7832 71.2461 21.2168C71.6797 21.6504 72.1836 21.9785 72.7578 22.2012C73.3438 22.4238 73.9648 22.5352 74.6211 22.5352C75.2773 22.5352 75.8926 22.3945 76.4668 22.1133C77.0527 21.8203 77.5625 21.4395 77.9961 20.9707C78.4297 20.4902 78.7695 19.9453 79.0156 19.3359C79.2734 18.7148 79.4023 18.0762 79.4023 17.4199ZM92.709 27H87.9102V8.17383H89.0703L90.6523 10.002C91.4258 9.29883 92.2988 8.75977 93.2715 8.38477C94.2559 7.99805 95.2812 7.80469 96.3477 7.80469C97.4961 7.80469 98.5801 8.02734 99.5996 8.47266C100.619 8.90625 101.51 9.50977 102.271 10.2832C103.033 11.0449 103.631 11.9414 104.064 12.9727C104.51 13.9922 104.732 15.082 104.732 16.2422V27H99.9336V16.2422C99.9336 15.75 99.8398 15.2871 99.6523 14.8535C99.4648 14.4082 99.207 14.0215 98.8789 13.6934C98.5508 13.3652 98.1699 13.1074 97.7363 12.9199C97.3027 12.7324 96.8398 12.6387 96.3477 12.6387C95.8438 12.6387 95.3691 12.7324 94.9238 12.9199C94.4785 13.1074 94.0918 13.3652 93.7637 13.6934C93.4355 14.0215 93.1777 14.4082 92.9902 14.8535C92.8027 15.2871 92.709 15.75 92.709 16.2422V27Z" fill="black"/>
</svg>
